<svg width="75" height="75" xmlns="http://www.w3.org/2000/svg">

 <g>
  <title>background</title>
  <rect fill="none" id="canvas_background" height="402" width="582" y="-1" x="-1"/>
 </g>
 <g>
  <title>Layer 1</title>
  <path stroke="null" fill="#ffffff" id="svg_3" d="m33.137396,63.448834c-4.104562,-0.312323 -6.649283,-2.400982 -7.2899,-2.949322c-0.489779,-0.413473 -0.960038,-0.848241 -1.368187,-1.23687l-0.738218,-0.736443c-3.56332,-3.783366 -4.700814,-7.754835 -3.804661,-13.275497c0.381531,-2.333549 1.23687,-4.482543 2.141896,-6.759306c0.246664,-0.619322 0.493328,-1.243968 0.734669,-1.875712c0.257311,1.694707 0.42412,3.316656 0.484455,4.493191l0.280381,5.444356l2.977715,-4.567722c3.568644,-5.474523 6.626214,-16.858338 7.098247,-25.179258c0.110023,-1.987509 -0.129543,-3.861447 -0.915674,-6.269527s-3.133876,-2.005255 -3.133876,-2.005255l0.44364,3.728354c0.663686,5.582772 -1.219124,15.57178 -3.930655,22.597271c-0.413473,-2.353069 -0.773709,-3.86677 -1.206702,-5.895094c-0.722247,-3.38054 -3.050472,-5.433708 -3.050472,-5.433708s0.055011,2.108179 -0.498652,5.490494c-0.558987,3.405384 -1.503054,5.453229 -2.580213,8.164759c-0.93342,2.351294 -1.900556,4.782444 -2.345971,7.499298c-1.080708,6.645734 0.376207,11.66597 4.7576,16.317096l0.807426,0.805651c0.482681,0.463161 1.009726,0.945841 1.549193,1.401904c1.080708,0.922772 4.315734,3.401835 9.318224,3.781591c0.046139,0.003549 0.092277,0.005324 0.136641,0.005324c0.919223,0 1.696481,-0.70805 1.767464,-1.639695c0.074532,-0.979558 -0.658362,-1.831348 -1.634371,-1.905879z"/>
  <path stroke="null" fill="#ffffff" id="svg_5" d="m56.382274,37.383114c-1.530657,-6.922431 -5.40384,-12.379705 -6.538043,-13.677661c-2.133956,-2.616596 -3.930065,-3.064761 -3.930065,-3.064761s1.004925,2.31667 1.16523,4.941885s-0.256833,3.531887 -1.154888,5.826149c-0.718788,-2.473528 -4.426494,-10.338829 -7.012064,-14.270618c-2.442501,-3.712877 -5.896821,-7.682588 -9.464907,-9.906177c0.081015,0.854962 0.555036,3.197487 0.63605,4.040383c5.886479,5.967494 12.410732,19.764091 13.534593,25.147246l0.698104,3.340555l2.275301,-2.5442c1.141098,-1.275547 2.621767,-4.283426 3.425017,-7.227528c1.092834,2.063284 2.277025,4.864317 3.000984,8.139372c1.194533,5.402116 1.322088,13.301892 -4.852251,20.255349c-1.075597,1.213494 -3.40778,4.853975 -8.203149,5.126322c-0.951489,0.055159 -1.677173,0.868751 -1.623737,1.818517c0.051711,0.917015 0.811869,1.625461 1.720265,1.625461c0.032751,0 0.067225,0 0.099975,-0.001724c4.13174,-0.236149 7.07067,-2.31667 10.58532,-6.281209c7.137895,-8.039396 7.006892,-17.100954 5.638264,-23.28736z"/>
 </g>
</svg>