<svg width="1792" height="1792" xmlns="http://www.w3.org/2000/svg">

 <g>
  <title>background</title>
  <rect fill="none" id="canvas_background" height="402" width="582" y="-1" x="-1"/>
 </g>
 <g>
  <title>Layer 1</title>
  <path fill="#cd7f32" id="svg_1" d="m524.90593,883q-74,-162 -74,-371l-256,0l0,96q0,78 94.5,162t235.5,113zm1078,-275l0,-96l-256,0q0,209 -74,371q141,-29 235.5,-113t94.5,-162zm128,-128l0,128q0,71 -41.5,143t-112,130t-173,97.5t-215.5,44.5q-42,54 -95,95q-38,34 -52.5,72.5t-14.5,89.5q0,54 30.5,91t97.5,37q75,0 133.5,45.5t58.5,114.5l0,64q0,14 -9,23t-23,9l-832,0q-14,0 -23,-9t-9,-23l0,-64q0,-69 58.5,-114.5t133.5,-45.5q67,0 97.5,-37t30.5,-91q0,-51 -14.5,-89.5t-52.5,-72.5q-53,-41 -95,-95q-113,-5 -215.5,-44.5t-173,-97.5t-112,-130t-41.5,-143l0,-128q0,-40 28,-68t68,-28l288,0l0,-96q0,-66 47,-113t113,-47l576,0q66,0 113,47t47,113l0,96l288,0q40,0 68,28t28,68z"/>
 </g>
</svg>