<svg width="1792" height="1792" xmlns="http://www.w3.org/2000/svg">

 <g>
  <title>background</title>
  <rect fill="none" id="canvas_background" height="402" width="582" y="-1" x="-1"/>
 </g>
 <g>
  <title>Layer 1</title>
  <path fill="#ffffff" id="svg_1" d="m381,1620q0,80 -54.5,126t-135.5,46q-106,0 -172,-66l57,-88q49,45 106,45q29,0 50.5,-14.5t21.5,-42.5q0,-64 -105,-56l-26,-56q8,-10 32.5,-43.5t42.5,-54t37,-38.5l0,-1q-16,0 -48.5,1t-48.5,1l0,53l-106,0l0,-152l333,0l0,88l-95,115q51,12 81,49t30,88zm2,-627l0,159l-362,0q-6,-36 -6,-54q0,-51 23.5,-93t56.5,-68t66,-47.5t56.5,-43.5t23.5,-45q0,-25 -14.5,-38.5t-39.5,-13.5q-46,0 -81,58l-85,-59q24,-51 71.5,-79.5t105.5,-28.5q73,0 123,41.5t50,112.5q0,50 -34,91.5t-75,64.5t-75.5,50.5t-35.5,52.5l127,0l0,-60l105,0zm1409,319l0,192q0,13 -9.5,22.5t-22.5,9.5l-1216,0q-13,0 -22.5,-9.5t-9.5,-22.5l0,-192q0,-14 9,-23t23,-9l1216,0q13,0 22.5,9.5t9.5,22.5zm-1408,-899l0,99l-335,0l0,-99l107,0q0,-41 0.5,-122t0.5,-121l0,-12l-2,0q-8,17 -50,54l-71,-76l136,-127l106,0l0,404l108,0zm1408,387l0,192q0,13 -9.5,22.5t-22.5,9.5l-1216,0q-13,0 -22.5,-9.5t-9.5,-22.5l0,-192q0,-14 9,-23t23,-9l1216,0q13,0 22.5,9.5t9.5,22.5zm0,-512l0,192q0,13 -9.5,22.5t-22.5,9.5l-1216,0q-13,0 -22.5,-9.5t-9.5,-22.5l0,-192q0,-13 9.5,-22.5t22.5,-9.5l1216,0q13,0 22.5,9.5t9.5,22.5z"/>
 </g>
</svg>