<svg width="24" height="24" xmlns="http://www.w3.org/2000/svg">

 <g>
  <title>background</title>
  <rect fill="none" id="canvas_background" height="402" width="582" y="-1" x="-1"/>
 </g>
 <g>
  <title>Layer 1</title>
  <ellipse fill="#ffffff" id="svg_1" ry="6" rx="5" cy="8" cx="11.963431"/>
  <path fill="#ffffff" id="svg_2" d="m21.8,19.1c-0.9,-1.8 -2.6,-3.3 -4.8,-4.2c-0.6,-0.2 -1.3,-0.2 -1.8,0.1c-1,0.6 -2,0.9 -3.2,0.9s-2.2,-0.3 -3.2,-0.9c-0.5,-0.2 -1.2,-0.3 -1.8,0c-2.2,0.9 -3.9,2.4 -4.8,4.2c-0.7,1.3 0.4,2.8 1.9,2.8l15.8,0c1.5,0 2.6,-1.5 1.9,-2.9z"/>
 </g>
</svg>